<mxfile host="Electron" modified="2023-07-31T10:05:19.136Z" agent="Mozilla/5.0 (Windows NT 10.0; Win64; x64) AppleWebKit/537.36 (KHTML, like Gecko) draw.io/21.6.5 Chrome/114.0.5735.243 Electron/25.3.1 Safari/537.36" etag="0kUmcp9awLeD2XWokdhT" version="21.6.5" type="device">
  <diagram id="C5RBs43oDa-KdzZeNtuy" name="Page-1">
    <mxGraphModel dx="1235" dy="731" grid="1" gridSize="10" guides="1" tooltips="1" connect="1" arrows="1" fold="1" page="1" pageScale="1" pageWidth="827" pageHeight="1169" math="0" shadow="0">
      <root>
        <mxCell id="WIyWlLk6GJQsqaUBKTNV-0" />
        <mxCell id="WIyWlLk6GJQsqaUBKTNV-1" parent="WIyWlLk6GJQsqaUBKTNV-0" />
        <mxCell id="dVi34uFo3yBI7F68kZax-49" style="edgeStyle=orthogonalEdgeStyle;rounded=0;orthogonalLoop=1;jettySize=auto;html=1;exitX=0.5;exitY=1;exitDx=0;exitDy=0;entryX=0.5;entryY=0;entryDx=0;entryDy=0;" parent="WIyWlLk6GJQsqaUBKTNV-1" source="dVi34uFo3yBI7F68kZax-5" target="dVi34uFo3yBI7F68kZax-7" edge="1">
          <mxGeometry relative="1" as="geometry" />
        </mxCell>
        <mxCell id="dVi34uFo3yBI7F68kZax-5" value="INICIO" style="ellipse;whiteSpace=wrap;html=1;" parent="WIyWlLk6GJQsqaUBKTNV-1" vertex="1">
          <mxGeometry x="156.5" y="40" width="110" height="50" as="geometry" />
        </mxCell>
        <mxCell id="A3oTdKX-Vx_8240I0zxs-19" style="edgeStyle=orthogonalEdgeStyle;rounded=0;orthogonalLoop=1;jettySize=auto;html=1;exitX=0.5;exitY=1;exitDx=0;exitDy=0;entryX=0.5;entryY=0;entryDx=0;entryDy=0;" edge="1" parent="WIyWlLk6GJQsqaUBKTNV-1" source="dVi34uFo3yBI7F68kZax-7" target="A3oTdKX-Vx_8240I0zxs-18">
          <mxGeometry relative="1" as="geometry" />
        </mxCell>
        <mxCell id="dVi34uFo3yBI7F68kZax-7" value="n1,n2" style="shape=parallelogram;perimeter=parallelogramPerimeter;whiteSpace=wrap;html=1;fixedSize=1;" parent="WIyWlLk6GJQsqaUBKTNV-1" vertex="1">
          <mxGeometry x="151.5" y="110" width="120" height="40" as="geometry" />
        </mxCell>
        <mxCell id="dVi34uFo3yBI7F68kZax-133" style="edgeStyle=orthogonalEdgeStyle;rounded=0;orthogonalLoop=1;jettySize=auto;html=1;exitX=1;exitY=0.5;exitDx=0;exitDy=0;entryX=0.5;entryY=0;entryDx=0;entryDy=0;" parent="WIyWlLk6GJQsqaUBKTNV-1" source="A3oTdKX-Vx_8240I0zxs-21" target="dVi34uFo3yBI7F68kZax-122" edge="1">
          <mxGeometry relative="1" as="geometry">
            <mxPoint x="520" y="280" as="sourcePoint" />
          </mxGeometry>
        </mxCell>
        <mxCell id="dVi34uFo3yBI7F68kZax-124" style="edgeStyle=orthogonalEdgeStyle;rounded=0;orthogonalLoop=1;jettySize=auto;html=1;exitX=0.5;exitY=1;exitDx=0;exitDy=0;entryX=0.5;entryY=0;entryDx=0;entryDy=0;" parent="WIyWlLk6GJQsqaUBKTNV-1" source="dVi34uFo3yBI7F68kZax-111" target="dVi34uFo3yBI7F68kZax-113" edge="1">
          <mxGeometry relative="1" as="geometry" />
        </mxCell>
        <mxCell id="A3oTdKX-Vx_8240I0zxs-17" style="edgeStyle=orthogonalEdgeStyle;rounded=0;orthogonalLoop=1;jettySize=auto;html=1;exitX=1;exitY=0.5;exitDx=0;exitDy=0;entryX=0;entryY=0.5;entryDx=0;entryDy=0;" edge="1" parent="WIyWlLk6GJQsqaUBKTNV-1" source="dVi34uFo3yBI7F68kZax-111" target="A3oTdKX-Vx_8240I0zxs-0">
          <mxGeometry relative="1" as="geometry" />
        </mxCell>
        <mxCell id="dVi34uFo3yBI7F68kZax-111" value="select==2" style="rhombus;whiteSpace=wrap;html=1;" parent="WIyWlLk6GJQsqaUBKTNV-1" vertex="1">
          <mxGeometry x="146.5" y="310" width="119" height="50" as="geometry" />
        </mxCell>
        <mxCell id="dVi34uFo3yBI7F68kZax-112" style="edgeStyle=orthogonalEdgeStyle;rounded=0;orthogonalLoop=1;jettySize=auto;html=1;exitX=0.5;exitY=1;exitDx=0;exitDy=0;" parent="WIyWlLk6GJQsqaUBKTNV-1" edge="1">
          <mxGeometry relative="1" as="geometry">
            <mxPoint x="209" y="310" as="sourcePoint" />
            <mxPoint x="209" y="310" as="targetPoint" />
          </mxGeometry>
        </mxCell>
        <mxCell id="dVi34uFo3yBI7F68kZax-125" style="edgeStyle=orthogonalEdgeStyle;rounded=0;orthogonalLoop=1;jettySize=auto;html=1;exitX=0.5;exitY=1;exitDx=0;exitDy=0;entryX=0.5;entryY=0;entryDx=0;entryDy=0;" parent="WIyWlLk6GJQsqaUBKTNV-1" source="dVi34uFo3yBI7F68kZax-113" target="dVi34uFo3yBI7F68kZax-114" edge="1">
          <mxGeometry relative="1" as="geometry" />
        </mxCell>
        <mxCell id="A3oTdKX-Vx_8240I0zxs-10" style="edgeStyle=orthogonalEdgeStyle;rounded=0;orthogonalLoop=1;jettySize=auto;html=1;exitX=1;exitY=0.5;exitDx=0;exitDy=0;entryX=0;entryY=0.5;entryDx=0;entryDy=0;" edge="1" parent="WIyWlLk6GJQsqaUBKTNV-1" source="dVi34uFo3yBI7F68kZax-113" target="A3oTdKX-Vx_8240I0zxs-1">
          <mxGeometry relative="1" as="geometry" />
        </mxCell>
        <mxCell id="dVi34uFo3yBI7F68kZax-113" value="select==3" style="rhombus;whiteSpace=wrap;html=1;" parent="WIyWlLk6GJQsqaUBKTNV-1" vertex="1">
          <mxGeometry x="146.5" y="380" width="119" height="50" as="geometry" />
        </mxCell>
        <mxCell id="dVi34uFo3yBI7F68kZax-126" style="edgeStyle=orthogonalEdgeStyle;rounded=0;orthogonalLoop=1;jettySize=auto;html=1;exitX=0.5;exitY=1;exitDx=0;exitDy=0;entryX=0.5;entryY=0;entryDx=0;entryDy=0;" parent="WIyWlLk6GJQsqaUBKTNV-1" source="dVi34uFo3yBI7F68kZax-114" target="dVi34uFo3yBI7F68kZax-115" edge="1">
          <mxGeometry relative="1" as="geometry" />
        </mxCell>
        <mxCell id="A3oTdKX-Vx_8240I0zxs-12" style="edgeStyle=orthogonalEdgeStyle;rounded=0;orthogonalLoop=1;jettySize=auto;html=1;exitX=1;exitY=0.5;exitDx=0;exitDy=0;entryX=0;entryY=0.5;entryDx=0;entryDy=0;" edge="1" parent="WIyWlLk6GJQsqaUBKTNV-1" source="dVi34uFo3yBI7F68kZax-114" target="A3oTdKX-Vx_8240I0zxs-3">
          <mxGeometry relative="1" as="geometry" />
        </mxCell>
        <mxCell id="dVi34uFo3yBI7F68kZax-114" value="select==4" style="rhombus;whiteSpace=wrap;html=1;" parent="WIyWlLk6GJQsqaUBKTNV-1" vertex="1">
          <mxGeometry x="130.75" y="460" width="150.5" height="50" as="geometry" />
        </mxCell>
        <mxCell id="dVi34uFo3yBI7F68kZax-127" style="edgeStyle=orthogonalEdgeStyle;rounded=0;orthogonalLoop=1;jettySize=auto;html=1;exitX=0.5;exitY=1;exitDx=0;exitDy=0;entryX=0.5;entryY=0;entryDx=0;entryDy=0;" parent="WIyWlLk6GJQsqaUBKTNV-1" source="dVi34uFo3yBI7F68kZax-115" target="dVi34uFo3yBI7F68kZax-120" edge="1">
          <mxGeometry relative="1" as="geometry" />
        </mxCell>
        <mxCell id="A3oTdKX-Vx_8240I0zxs-14" style="edgeStyle=orthogonalEdgeStyle;rounded=0;orthogonalLoop=1;jettySize=auto;html=1;exitX=1;exitY=0.5;exitDx=0;exitDy=0;entryX=0;entryY=0.5;entryDx=0;entryDy=0;" edge="1" parent="WIyWlLk6GJQsqaUBKTNV-1" source="dVi34uFo3yBI7F68kZax-115" target="A3oTdKX-Vx_8240I0zxs-2">
          <mxGeometry relative="1" as="geometry" />
        </mxCell>
        <mxCell id="dVi34uFo3yBI7F68kZax-115" value="select==5" style="rhombus;whiteSpace=wrap;html=1;" parent="WIyWlLk6GJQsqaUBKTNV-1" vertex="1">
          <mxGeometry x="130.75" y="540" width="150.5" height="60" as="geometry" />
        </mxCell>
        <mxCell id="dVi34uFo3yBI7F68kZax-135" style="edgeStyle=orthogonalEdgeStyle;rounded=0;orthogonalLoop=1;jettySize=auto;html=1;exitX=1;exitY=0.5;exitDx=0;exitDy=0;entryX=0.5;entryY=0;entryDx=0;entryDy=0;" parent="WIyWlLk6GJQsqaUBKTNV-1" source="A3oTdKX-Vx_8240I0zxs-23" target="dVi34uFo3yBI7F68kZax-122" edge="1">
          <mxGeometry relative="1" as="geometry">
            <mxPoint x="509" y="365" as="sourcePoint" />
          </mxGeometry>
        </mxCell>
        <mxCell id="dVi34uFo3yBI7F68kZax-153" style="edgeStyle=orthogonalEdgeStyle;rounded=0;orthogonalLoop=1;jettySize=auto;html=1;exitX=1;exitY=0.5;exitDx=0;exitDy=0;entryX=0.5;entryY=1;entryDx=0;entryDy=0;" parent="WIyWlLk6GJQsqaUBKTNV-1" source="dVi34uFo3yBI7F68kZax-120" target="dVi34uFo3yBI7F68kZax-122" edge="1">
          <mxGeometry relative="1" as="geometry" />
        </mxCell>
        <mxCell id="dVi34uFo3yBI7F68kZax-120" value="&quot;La opciÃ³n escogida no es valida&quot;" style="shape=document;whiteSpace=wrap;html=1;boundedLbl=1;" parent="WIyWlLk6GJQsqaUBKTNV-1" vertex="1">
          <mxGeometry x="161" y="630" width="90" height="70" as="geometry" />
        </mxCell>
        <mxCell id="dVi34uFo3yBI7F68kZax-121" value="FIN" style="ellipse;whiteSpace=wrap;html=1;" parent="WIyWlLk6GJQsqaUBKTNV-1" vertex="1">
          <mxGeometry x="645" y="415" width="110" height="50" as="geometry" />
        </mxCell>
        <mxCell id="dVi34uFo3yBI7F68kZax-141" style="edgeStyle=orthogonalEdgeStyle;rounded=0;orthogonalLoop=1;jettySize=auto;html=1;exitX=1;exitY=0.5;exitDx=0;exitDy=0;entryX=0;entryY=0.5;entryDx=0;entryDy=0;" parent="WIyWlLk6GJQsqaUBKTNV-1" source="dVi34uFo3yBI7F68kZax-122" target="dVi34uFo3yBI7F68kZax-121" edge="1">
          <mxGeometry relative="1" as="geometry" />
        </mxCell>
        <mxCell id="dVi34uFo3yBI7F68kZax-122" value="" style="ellipse;whiteSpace=wrap;html=1;aspect=fixed;" parent="WIyWlLk6GJQsqaUBKTNV-1" vertex="1">
          <mxGeometry x="600" y="430" width="20" height="20" as="geometry" />
        </mxCell>
        <mxCell id="dVi34uFo3yBI7F68kZax-142" value="verdadero" style="text;html=1;strokeColor=none;fillColor=none;align=center;verticalAlign=middle;whiteSpace=wrap;rounded=0;" parent="WIyWlLk6GJQsqaUBKTNV-1" vertex="1">
          <mxGeometry x="266.5" y="230" width="60" height="30" as="geometry" />
        </mxCell>
        <mxCell id="dVi34uFo3yBI7F68kZax-143" value="verdadero" style="text;html=1;strokeColor=none;fillColor=none;align=center;verticalAlign=middle;whiteSpace=wrap;rounded=0;" parent="WIyWlLk6GJQsqaUBKTNV-1" vertex="1">
          <mxGeometry x="270" y="300" width="60" height="30" as="geometry" />
        </mxCell>
        <mxCell id="dVi34uFo3yBI7F68kZax-144" value="verdadero" style="text;html=1;strokeColor=none;fillColor=none;align=center;verticalAlign=middle;whiteSpace=wrap;rounded=0;" parent="WIyWlLk6GJQsqaUBKTNV-1" vertex="1">
          <mxGeometry x="270" y="370" width="60" height="30" as="geometry" />
        </mxCell>
        <mxCell id="dVi34uFo3yBI7F68kZax-145" value="verdadero" style="text;html=1;strokeColor=none;fillColor=none;align=center;verticalAlign=middle;whiteSpace=wrap;rounded=0;" parent="WIyWlLk6GJQsqaUBKTNV-1" vertex="1">
          <mxGeometry x="271.5" y="445" width="60" height="30" as="geometry" />
        </mxCell>
        <mxCell id="dVi34uFo3yBI7F68kZax-146" value="verdadero" style="text;html=1;strokeColor=none;fillColor=none;align=center;verticalAlign=middle;whiteSpace=wrap;rounded=0;" parent="WIyWlLk6GJQsqaUBKTNV-1" vertex="1">
          <mxGeometry x="271.5" y="530" width="60" height="30" as="geometry" />
        </mxCell>
        <mxCell id="dVi34uFo3yBI7F68kZax-147" value="falso" style="text;html=1;strokeColor=none;fillColor=none;align=center;verticalAlign=middle;whiteSpace=wrap;rounded=0;" parent="WIyWlLk6GJQsqaUBKTNV-1" vertex="1">
          <mxGeometry x="146.5" y="350" width="60" height="30" as="geometry" />
        </mxCell>
        <mxCell id="dVi34uFo3yBI7F68kZax-149" value="falso" style="text;html=1;strokeColor=none;fillColor=none;align=center;verticalAlign=middle;whiteSpace=wrap;rounded=0;" parent="WIyWlLk6GJQsqaUBKTNV-1" vertex="1">
          <mxGeometry x="146.5" y="285" width="60" height="30" as="geometry" />
        </mxCell>
        <mxCell id="dVi34uFo3yBI7F68kZax-150" value="falso" style="text;html=1;strokeColor=none;fillColor=none;align=center;verticalAlign=middle;whiteSpace=wrap;rounded=0;" parent="WIyWlLk6GJQsqaUBKTNV-1" vertex="1">
          <mxGeometry x="148.5" y="430" width="60" height="30" as="geometry" />
        </mxCell>
        <mxCell id="dVi34uFo3yBI7F68kZax-151" value="falso" style="text;html=1;strokeColor=none;fillColor=none;align=center;verticalAlign=middle;whiteSpace=wrap;rounded=0;" parent="WIyWlLk6GJQsqaUBKTNV-1" vertex="1">
          <mxGeometry x="148.5" y="510" width="60" height="30" as="geometry" />
        </mxCell>
        <mxCell id="dVi34uFo3yBI7F68kZax-152" value="falso" style="text;html=1;strokeColor=none;fillColor=none;align=center;verticalAlign=middle;whiteSpace=wrap;rounded=0;" parent="WIyWlLk6GJQsqaUBKTNV-1" vertex="1">
          <mxGeometry x="146.5" y="600" width="60" height="30" as="geometry" />
        </mxCell>
        <mxCell id="A3oTdKX-Vx_8240I0zxs-35" style="edgeStyle=orthogonalEdgeStyle;rounded=0;orthogonalLoop=1;jettySize=auto;html=1;exitX=1;exitY=0.5;exitDx=0;exitDy=0;entryX=0;entryY=0.25;entryDx=0;entryDy=0;" edge="1" parent="WIyWlLk6GJQsqaUBKTNV-1" source="RNA9lPwBnb46E1mYOch1-0" target="A3oTdKX-Vx_8240I0zxs-21">
          <mxGeometry relative="1" as="geometry" />
        </mxCell>
        <mxCell id="RNA9lPwBnb46E1mYOch1-0" value="resultado=n1+n2" style="rounded=0;whiteSpace=wrap;html=1;" parent="WIyWlLk6GJQsqaUBKTNV-1" vertex="1">
          <mxGeometry x="340" y="245" width="95.5" height="40" as="geometry" />
        </mxCell>
        <mxCell id="A3oTdKX-Vx_8240I0zxs-34" style="edgeStyle=orthogonalEdgeStyle;rounded=0;orthogonalLoop=1;jettySize=auto;html=1;exitX=1;exitY=0.5;exitDx=0;exitDy=0;entryX=0;entryY=0.5;entryDx=0;entryDy=0;" edge="1" parent="WIyWlLk6GJQsqaUBKTNV-1" source="A3oTdKX-Vx_8240I0zxs-0" target="A3oTdKX-Vx_8240I0zxs-23">
          <mxGeometry relative="1" as="geometry" />
        </mxCell>
        <mxCell id="A3oTdKX-Vx_8240I0zxs-0" value="resultado=n1-n2" style="rounded=0;whiteSpace=wrap;html=1;" vertex="1" parent="WIyWlLk6GJQsqaUBKTNV-1">
          <mxGeometry x="340" y="315" width="100" height="40" as="geometry" />
        </mxCell>
        <mxCell id="A3oTdKX-Vx_8240I0zxs-11" style="edgeStyle=orthogonalEdgeStyle;rounded=0;orthogonalLoop=1;jettySize=auto;html=1;exitX=1;exitY=0.5;exitDx=0;exitDy=0;entryX=0.5;entryY=0;entryDx=0;entryDy=0;" edge="1" parent="WIyWlLk6GJQsqaUBKTNV-1" source="A3oTdKX-Vx_8240I0zxs-25" target="dVi34uFo3yBI7F68kZax-122">
          <mxGeometry relative="1" as="geometry" />
        </mxCell>
        <mxCell id="A3oTdKX-Vx_8240I0zxs-33" style="edgeStyle=orthogonalEdgeStyle;rounded=0;orthogonalLoop=1;jettySize=auto;html=1;exitX=1;exitY=0.5;exitDx=0;exitDy=0;entryX=0;entryY=0.5;entryDx=0;entryDy=0;" edge="1" parent="WIyWlLk6GJQsqaUBKTNV-1" source="A3oTdKX-Vx_8240I0zxs-1" target="A3oTdKX-Vx_8240I0zxs-25">
          <mxGeometry relative="1" as="geometry" />
        </mxCell>
        <mxCell id="A3oTdKX-Vx_8240I0zxs-1" value="resultado=n1*n2" style="rounded=0;whiteSpace=wrap;html=1;" vertex="1" parent="WIyWlLk6GJQsqaUBKTNV-1">
          <mxGeometry x="341.13" y="382.5" width="100" height="45" as="geometry" />
        </mxCell>
        <mxCell id="A3oTdKX-Vx_8240I0zxs-15" style="edgeStyle=orthogonalEdgeStyle;rounded=0;orthogonalLoop=1;jettySize=auto;html=1;exitX=1;exitY=0.5;exitDx=0;exitDy=0;entryX=0.5;entryY=1;entryDx=0;entryDy=0;" edge="1" parent="WIyWlLk6GJQsqaUBKTNV-1" source="A3oTdKX-Vx_8240I0zxs-29" target="dVi34uFo3yBI7F68kZax-122">
          <mxGeometry relative="1" as="geometry" />
        </mxCell>
        <mxCell id="A3oTdKX-Vx_8240I0zxs-31" style="edgeStyle=orthogonalEdgeStyle;rounded=0;orthogonalLoop=1;jettySize=auto;html=1;exitX=1;exitY=0.5;exitDx=0;exitDy=0;entryX=0;entryY=0.5;entryDx=0;entryDy=0;" edge="1" parent="WIyWlLk6GJQsqaUBKTNV-1" source="A3oTdKX-Vx_8240I0zxs-2" target="A3oTdKX-Vx_8240I0zxs-29">
          <mxGeometry relative="1" as="geometry" />
        </mxCell>
        <mxCell id="A3oTdKX-Vx_8240I0zxs-2" value="resultado=n1%n2" style="rounded=0;whiteSpace=wrap;html=1;" vertex="1" parent="WIyWlLk6GJQsqaUBKTNV-1">
          <mxGeometry x="338.88" y="548.5" width="102.25" height="43" as="geometry" />
        </mxCell>
        <mxCell id="A3oTdKX-Vx_8240I0zxs-13" style="edgeStyle=orthogonalEdgeStyle;rounded=0;orthogonalLoop=1;jettySize=auto;html=1;exitX=1;exitY=0.5;exitDx=0;exitDy=0;entryX=0.5;entryY=1;entryDx=0;entryDy=0;" edge="1" parent="WIyWlLk6GJQsqaUBKTNV-1" source="A3oTdKX-Vx_8240I0zxs-27" target="dVi34uFo3yBI7F68kZax-122">
          <mxGeometry relative="1" as="geometry" />
        </mxCell>
        <mxCell id="A3oTdKX-Vx_8240I0zxs-32" style="edgeStyle=orthogonalEdgeStyle;rounded=0;orthogonalLoop=1;jettySize=auto;html=1;exitX=1;exitY=0.5;exitDx=0;exitDy=0;entryX=0;entryY=0.5;entryDx=0;entryDy=0;" edge="1" parent="WIyWlLk6GJQsqaUBKTNV-1" source="A3oTdKX-Vx_8240I0zxs-3" target="A3oTdKX-Vx_8240I0zxs-27">
          <mxGeometry relative="1" as="geometry" />
        </mxCell>
        <mxCell id="A3oTdKX-Vx_8240I0zxs-3" value="resultado=n1/n2" style="rounded=0;whiteSpace=wrap;html=1;" vertex="1" parent="WIyWlLk6GJQsqaUBKTNV-1">
          <mxGeometry x="337.75" y="465" width="100" height="40" as="geometry" />
        </mxCell>
        <mxCell id="A3oTdKX-Vx_8240I0zxs-7" style="edgeStyle=orthogonalEdgeStyle;rounded=0;orthogonalLoop=1;jettySize=auto;html=1;exitX=0.5;exitY=1;exitDx=0;exitDy=0;entryX=0.5;entryY=0;entryDx=0;entryDy=0;" edge="1" parent="WIyWlLk6GJQsqaUBKTNV-1" source="A3oTdKX-Vx_8240I0zxs-5" target="dVi34uFo3yBI7F68kZax-111">
          <mxGeometry relative="1" as="geometry" />
        </mxCell>
        <mxCell id="A3oTdKX-Vx_8240I0zxs-16" style="edgeStyle=orthogonalEdgeStyle;rounded=0;orthogonalLoop=1;jettySize=auto;html=1;exitX=1;exitY=0.5;exitDx=0;exitDy=0;" edge="1" parent="WIyWlLk6GJQsqaUBKTNV-1" source="A3oTdKX-Vx_8240I0zxs-5" target="RNA9lPwBnb46E1mYOch1-0">
          <mxGeometry relative="1" as="geometry" />
        </mxCell>
        <mxCell id="A3oTdKX-Vx_8240I0zxs-5" value="select==1" style="rhombus;whiteSpace=wrap;html=1;" vertex="1" parent="WIyWlLk6GJQsqaUBKTNV-1">
          <mxGeometry x="146.5" y="240" width="119" height="50" as="geometry" />
        </mxCell>
        <mxCell id="A3oTdKX-Vx_8240I0zxs-20" style="edgeStyle=orthogonalEdgeStyle;rounded=0;orthogonalLoop=1;jettySize=auto;html=1;exitX=0.5;exitY=1;exitDx=0;exitDy=0;entryX=0.5;entryY=0;entryDx=0;entryDy=0;" edge="1" parent="WIyWlLk6GJQsqaUBKTNV-1" source="A3oTdKX-Vx_8240I0zxs-18" target="A3oTdKX-Vx_8240I0zxs-5">
          <mxGeometry relative="1" as="geometry" />
        </mxCell>
        <mxCell id="A3oTdKX-Vx_8240I0zxs-18" value="select" style="shape=parallelogram;perimeter=parallelogramPerimeter;whiteSpace=wrap;html=1;fixedSize=1;" vertex="1" parent="WIyWlLk6GJQsqaUBKTNV-1">
          <mxGeometry x="145.5" y="170" width="120" height="40" as="geometry" />
        </mxCell>
        <mxCell id="A3oTdKX-Vx_8240I0zxs-21" value="resultado" style="shape=document;whiteSpace=wrap;html=1;boundedLbl=1;" vertex="1" parent="WIyWlLk6GJQsqaUBKTNV-1">
          <mxGeometry x="490" y="255" width="70" height="40" as="geometry" />
        </mxCell>
        <mxCell id="A3oTdKX-Vx_8240I0zxs-23" value="resultado" style="shape=document;whiteSpace=wrap;html=1;boundedLbl=1;" vertex="1" parent="WIyWlLk6GJQsqaUBKTNV-1">
          <mxGeometry x="490" y="315" width="70" height="40" as="geometry" />
        </mxCell>
        <mxCell id="A3oTdKX-Vx_8240I0zxs-25" value="resultado" style="shape=document;whiteSpace=wrap;html=1;boundedLbl=1;" vertex="1" parent="WIyWlLk6GJQsqaUBKTNV-1">
          <mxGeometry x="490" y="385" width="70" height="40" as="geometry" />
        </mxCell>
        <mxCell id="A3oTdKX-Vx_8240I0zxs-27" value="resultado" style="shape=document;whiteSpace=wrap;html=1;boundedLbl=1;" vertex="1" parent="WIyWlLk6GJQsqaUBKTNV-1">
          <mxGeometry x="490" y="465" width="70" height="40" as="geometry" />
        </mxCell>
        <mxCell id="A3oTdKX-Vx_8240I0zxs-29" value="resultado" style="shape=document;whiteSpace=wrap;html=1;boundedLbl=1;" vertex="1" parent="WIyWlLk6GJQsqaUBKTNV-1">
          <mxGeometry x="490" y="550" width="70" height="40" as="geometry" />
        </mxCell>
      </root>
    </mxGraphModel>
  </diagram>
</mxfile>
